<svg width="24" height="24" viewBox="0 0 24 24" fill="none" xmlns="http://www.w3.org/2000/svg">
<path d="M5.68088 2.15983C4.86525 2.27233 3.99338 2.56296 3.30431 2.95671C1.55588 3.95983 0.407438 5.61452 0.0652509 7.63014C-0.0472491 8.28639 -0.00506164 9.41608 0.154313 10.0536C0.309001 10.663 0.515251 11.1926 0.848063 11.8442C2.334 14.7505 6.02306 18.1583 10.9684 21.1958C12.0606 21.8661 11.9574 21.8286 12.2715 21.6505C12.8481 21.327 14.1278 20.5301 14.9293 19.9911C18.4731 17.6051 21.2528 14.9942 22.6871 12.702C23.3059 11.713 23.7746 10.5551 23.934 9.62702C24.0278 9.07858 24.0043 7.85046 23.8871 7.33483C23.4512 5.37546 22.2137 3.74889 20.4981 2.86764C19.9215 2.57233 19.6403 2.46452 19.0778 2.32389C17.6199 1.95358 16.1574 2.07546 14.7746 2.68014C13.884 3.06921 12.8293 3.89889 12.2715 4.64889C12.1403 4.82233 12.0184 4.96764 11.9996 4.96764C11.9809 4.96764 11.859 4.82702 11.7324 4.64889C10.8371 3.45358 9.33713 2.52077 7.82306 2.22546C7.34963 2.13171 6.15431 2.09421 5.68088 2.15983Z" fill="#FE6D6D"/>
</svg>
