<svg width="24" height="24" viewBox="0 0 24 24" fill="none" xmlns="http://www.w3.org/2000/svg">
<g clip-path="url(#clip0_43_843)">
<path d="M11.9677 1.3887C12.0086 1.38873 12.0494 1.38875 12.0915 1.38878C13.8242 1.39372 15.4879 1.80219 17.0156 2.62503C17.0622 2.64976 17.0622 2.64976 17.1098 2.675C18.0213 3.16029 18.7986 3.79199 19.5468 4.50003C19.5787 4.52994 19.6107 4.55985 19.6435 4.59067C19.8443 4.78445 20.0185 4.99776 20.1932 5.21506C20.3043 5.35308 20.4175 5.48915 20.5312 5.62503C20.5516 5.5808 20.5721 5.53657 20.5931 5.491C20.6667 5.33201 20.741 5.17337 20.8157 5.01488C20.8537 4.93386 20.8914 4.85264 20.9289 4.77139C21.4173 3.748 22.3067 2.6279 23.3437 2.10941C23.5679 2.08699 23.6615 2.07941 23.8638 2.18541C23.9729 2.28045 23.9983 2.33495 24.0261 2.47881C24.0363 2.66192 24.0373 2.84397 24.0354 3.02725C24.0357 3.09865 24.0361 3.17006 24.0366 3.24147C24.0377 3.43779 24.037 3.63408 24.036 3.8304C24.0353 4.0421 24.0362 4.25379 24.0369 4.46549C24.038 4.88031 24.0375 5.29511 24.0365 5.70993C24.0358 6.04713 24.0356 6.38434 24.0358 6.72155C24.0358 6.76951 24.0358 6.81748 24.0359 6.8669C24.0359 6.96435 24.036 7.06179 24.0361 7.15924C24.0366 8.07355 24.0355 8.98785 24.0338 9.90216C24.0323 10.6864 24.0322 11.4707 24.0331 12.255C24.0341 13.1656 24.0344 14.0763 24.0335 14.9869C24.0334 15.0841 24.0333 15.1812 24.0332 15.2784C24.0331 15.3262 24.0331 15.374 24.033 15.4233C24.0327 15.7599 24.0329 16.0965 24.0333 16.4331C24.0338 16.8436 24.0335 17.2541 24.0321 17.6647C24.0314 17.8741 24.031 18.0834 24.0317 18.2928C24.0323 18.4847 24.0318 18.6765 24.0305 18.8684C24.0302 18.9376 24.0303 19.0069 24.0308 19.0761C24.0345 19.5881 23.9581 19.9529 23.6103 20.3379C23.2653 20.658 22.8965 20.736 22.4366 20.7318C22.0958 20.7059 21.7953 20.5756 21.5438 20.3425C21.2147 19.9372 21.1354 19.5126 21.1258 19.0099C21.1248 18.9675 21.1238 18.9252 21.1228 18.8816C21.1198 18.7469 21.117 18.6122 21.1142 18.4776C21.1122 18.386 21.1102 18.2945 21.1081 18.203C21.1031 17.9791 21.0983 17.7552 21.0937 17.5313C21.0627 17.5782 21.0318 17.6252 20.9998 17.6736C20.9581 17.7365 20.9164 17.7994 20.8747 17.8623C20.8544 17.8931 20.8341 17.9239 20.8132 17.9556C19.2674 20.2844 16.8241 21.8543 14.1033 22.4252C13.4118 22.5621 12.7354 22.613 12.0322 22.6114C11.9709 22.6113 11.9709 22.6113 11.9084 22.6113C10.1749 22.6063 8.51315 22.1969 6.98434 21.375C6.95349 21.3588 6.92265 21.3426 6.89087 21.3258C6.40566 21.0696 5.96378 20.7747 5.53122 20.4375C5.48596 20.4023 5.4407 20.3671 5.39407 20.3308C4.83036 19.8796 4.32471 19.3811 3.84372 18.8438C3.83764 18.927 3.83764 18.927 3.83145 19.0119C3.78987 19.5051 3.73342 19.8983 3.40426 20.2881C2.96055 20.6579 2.60463 20.7711 2.01559 20.7188C1.61971 20.6205 1.30022 20.3441 1.08102 20.0069C0.97191 19.8253 0.931462 19.663 0.932145 19.4516C0.932149 19.4142 0.932152 19.3768 0.932156 19.3383C0.932398 19.2974 0.93264 19.2566 0.932889 19.2146C0.932988 19.1492 0.932988 19.1492 0.933089 19.0825C0.933358 18.9362 0.933953 18.7898 0.934537 18.6435C0.934778 18.5387 0.934994 18.4339 0.935184 18.3291C0.935609 18.1033 0.936139 17.8774 0.936724 17.6516C0.937565 17.2945 0.937658 16.9374 0.937547 16.5803C0.937521 16.4899 0.937521 16.4899 0.937495 16.3978C0.937422 16.1808 0.937335 15.9638 0.937244 15.7468C0.937155 15.524 0.937096 15.3012 0.937078 15.0783C0.937075 15.0466 0.937071 15.0148 0.937068 14.9821C0.937061 14.4673 0.938406 13.9525 0.940206 13.4378C0.94202 12.9091 0.942199 12.3804 0.94099 11.8517C0.940368 11.5549 0.940506 11.2582 0.942445 10.9614C0.944253 10.6822 0.944099 10.4032 0.942439 10.124C0.942179 10.0216 0.942641 9.91913 0.943877 9.8167C0.973298 9.29509 0.973298 9.29509 0.798694 8.82504C0.690625 8.7363 0.690625 8.7363 0.574356 8.68085C0.288588 8.52985 0.154373 8.15482 0.0411296 7.86785C-0.0283043 7.64276 -0.0269065 7.42404 -0.0257826 7.19007C-0.0262617 7.1378 -0.0267409 7.08553 -0.0272346 7.03167C-0.028529 6.86033 -0.0284483 6.68902 -0.0282316 6.51767C-0.0285963 6.39804 -0.0290027 6.27841 -0.029449 6.15879C-0.0301466 5.90878 -0.0301356 5.6588 -0.0296278 5.40879C-0.0290599 5.12014 -0.0302211 4.83153 -0.0322127 4.54288C-0.0340637 4.26431 -0.0343485 3.98576 -0.034018 3.70718C-0.0340662 3.58897 -0.034559 3.47076 -0.0355015 3.35256C-0.0366561 3.1876 -0.0360265 3.02274 -0.0349379 2.85779C-0.0356545 2.80896 -0.0363711 2.76014 -0.0371094 2.70983C-0.0323963 2.38729 -0.0323964 2.38729 0.0614078 2.26118C0.186059 2.15374 0.301843 2.07663 0.468717 2.08011C0.497721 2.0795 0.526724 2.0789 0.556607 2.07828C0.714348 2.12757 0.832161 2.21905 0.937467 2.34378C0.964737 2.47412 0.973487 2.56351 0.969396 2.69311C0.969437 2.72744 0.969478 2.76176 0.96952 2.79712C0.969325 2.91004 0.967141 3.02282 0.964932 3.13571C0.964408 3.2142 0.964007 3.29268 0.963727 3.37117C0.962655 3.57733 0.959894 3.78344 0.956779 3.98958C0.953897 4.2001 0.952616 4.41062 0.9512 4.62115C0.948187 5.03393 0.943241 5.44666 0.937467 5.85941C1.24684 5.85941 1.55622 5.85941 1.87497 5.85941C1.87398 5.75555 1.873 5.6517 1.87199 5.5447C1.86888 5.20139 1.86681 4.85807 1.86525 4.51474C1.86427 4.3066 1.86295 4.09848 1.86082 3.89035C1.85878 3.68945 1.85766 3.48856 1.85718 3.28765C1.85683 3.21104 1.85615 3.13444 1.85514 3.05783C1.85378 2.95043 1.85359 2.84309 1.85368 2.73568C1.85326 2.67458 1.85285 2.61348 1.85242 2.55053C1.87869 2.36429 1.93104 2.28808 2.06247 2.15628C2.22537 2.07483 2.40038 2.08147 2.57809 2.10941C2.73192 2.22798 2.79805 2.30053 2.85934 2.48441C2.86356 2.59293 2.86485 2.70158 2.86466 2.81018C2.86467 2.84312 2.86468 2.87606 2.86468 2.91C2.86465 3.01881 2.86429 3.12761 2.86392 3.23642C2.86383 3.31189 2.86377 3.38735 2.86372 3.46282C2.86354 3.66141 2.86308 3.86 2.86256 4.05858C2.86208 4.26124 2.86187 4.4639 2.86163 4.66656C2.86113 5.06418 2.8603 5.46179 2.85934 5.85941C3.15325 5.85941 3.44715 5.85941 3.74997 5.85941C3.74849 5.70363 3.74849 5.70363 3.74699 5.5447C3.74388 5.20139 3.74181 4.85807 3.74025 4.51474C3.73927 4.3066 3.73795 4.09848 3.73582 3.89035C3.73378 3.68945 3.73266 3.48856 3.73218 3.28765C3.73183 3.21104 3.73115 3.13444 3.73014 3.05783C3.72878 2.95043 3.72859 2.84309 3.72868 2.73568C3.72826 2.67458 3.72785 2.61348 3.72742 2.55053C3.75369 2.36429 3.80604 2.28808 3.93747 2.15628C4.10025 2.07489 4.27553 2.08119 4.45309 2.10941C4.58226 2.21167 4.66102 2.29089 4.73434 2.43753C4.7417 2.56734 4.74646 2.69616 4.74917 2.82608C4.75015 2.86444 4.75112 2.90281 4.75213 2.94233C4.75519 3.06508 4.75795 3.18783 4.76071 3.31058C4.76273 3.39371 4.76478 3.47684 4.76684 3.55997C4.77187 3.76394 4.77661 3.96792 4.78122 4.17191C4.8457 4.11589 4.8457 4.11589 4.91148 4.05875C5.51443 3.537 5.51443 3.537 5.8154 3.32816C5.84811 3.30538 5.88082 3.28261 5.91453 3.25915C7.7138 2.03002 9.79159 1.38355 11.9677 1.3887ZM10.1718 2.53128C10.1278 2.54059 10.0837 2.54991 10.0383 2.5595C8.77328 2.83379 7.56736 3.31351 6.51559 4.07816C6.47082 4.11018 6.42604 4.14221 6.37991 4.1752C6.12104 4.36452 5.87061 4.56349 5.62497 4.76956C5.60056 4.78964 5.57616 4.80971 5.55101 4.8304C5.49804 4.87561 5.4463 4.92229 5.39554 4.96997C5.34092 5.02119 5.2857 5.07186 5.22829 5.11992C4.97413 5.33431 4.73946 5.54521 4.68783 5.88701C4.66883 6.12816 4.67717 6.36803 4.68747 6.6094C4.69177 6.77248 4.6945 6.93554 4.69626 7.09866C4.69678 7.13764 4.6973 7.17662 4.69784 7.21678C4.69745 7.7234 4.55094 8.18781 4.21872 8.57816C4.0892 8.70605 3.96031 8.82454 3.79684 8.90628C3.78807 9.96 3.78146 11.0137 3.77741 12.0675C3.77548 12.5568 3.77285 13.0461 3.76855 13.5354C3.76481 13.962 3.76239 14.3886 3.76156 14.8153C3.76107 15.0411 3.75993 15.2668 3.75719 15.4926C3.75463 15.7054 3.75387 15.9182 3.75443 16.1311C3.75432 16.2088 3.75359 16.2866 3.75214 16.3644C3.74297 16.8828 3.82967 17.2156 4.17184 17.625C4.23342 17.7051 4.29495 17.7851 4.35641 17.8653C4.52064 18.0662 4.69259 18.2595 4.86764 18.451C4.95916 18.552 5.0476 18.6549 5.13571 18.7588C5.30048 18.9468 5.47925 19.1067 5.67184 19.2657C5.69526 19.2855 5.71869 19.3053 5.74282 19.3257C7.75906 21.0279 10.2737 21.7671 12.8906 21.6094C13.2871 21.5749 13.6743 21.5085 14.0625 21.4219C14.1019 21.4134 14.1413 21.4048 14.1819 21.3961C15.9849 20.9956 17.5122 20.0499 18.8437 18.7969C18.8746 18.768 18.9055 18.7391 18.9373 18.7094C19.7104 17.9631 20.2998 17.0009 20.7597 16.0371C20.7765 16.0021 20.7932 15.967 20.8105 15.9309C20.8599 15.8245 20.9068 15.7173 20.9531 15.6094C20.9694 15.5716 20.9858 15.5338 21.0027 15.4948C21.1332 15.1685 21.166 14.8904 21.1589 14.541C21.1586 14.4907 21.1584 14.4405 21.1581 14.3887C21.1571 14.2302 21.1547 14.0717 21.1523 13.9131C21.1514 13.8048 21.1505 13.6965 21.1497 13.5882C21.1477 13.3244 21.1446 13.0607 21.1406 12.7969C21.1053 12.7942 21.07 12.7916 21.0337 12.7888C20.9641 12.7831 20.9641 12.7831 20.8932 12.7773C20.8473 12.7737 20.8014 12.77 20.7541 12.7663C20.5919 12.7459 20.4781 12.7024 20.3437 12.6094C20.2551 12.469 20.2388 12.3636 20.2415 12.1991C20.242 12.1545 20.2425 12.1098 20.243 12.0638C20.244 12.0151 20.245 11.9664 20.246 11.9162C20.2467 11.8646 20.2473 11.8131 20.248 11.76C20.2495 11.6479 20.2511 11.5359 20.2529 11.4238C20.2566 11.185 20.2586 10.9462 20.2607 10.7073C20.2646 10.2627 20.2692 9.81816 20.2766 9.37361C20.2818 9.0643 20.2847 8.75501 20.2863 8.44566C20.2874 8.32818 20.2891 8.21071 20.2917 8.09326C20.3066 7.39817 20.301 6.91272 19.8281 6.37503C19.784 6.3144 19.7402 6.25348 19.6972 6.19211C19.2722 5.65341 18.8192 5.11712 18.2812 4.68753C18.2349 4.64934 18.1885 4.61115 18.1408 4.57181C15.9539 2.79161 12.961 1.9272 10.1718 2.53128ZM22.8545 3.75882C21.5701 5.06838 21.1686 6.72756 21.1783 8.51205C21.1785 8.60774 21.1786 8.70342 21.1787 8.7991C21.1791 9.04854 21.18 9.29798 21.181 9.54742C21.1822 9.84799 21.1826 10.1486 21.1831 10.4491C21.184 10.9036 21.1858 11.3581 21.1875 11.8125C21.8062 11.8125 22.425 11.8125 23.0625 11.8125C23.0625 9.1055 23.0625 6.39847 23.0625 3.60941C22.9734 3.60941 22.9144 3.70028 22.8545 3.75882ZM0.937467 6.84378C0.935295 7.47477 0.935295 7.47478 1.26339 7.9816C1.56555 8.23647 1.86417 8.22647 2.24202 8.22406C2.33731 8.22367 2.43246 8.22501 2.52774 8.2265C2.90491 8.22631 3.20221 8.21632 3.49247 7.95112C3.79934 7.61507 3.74997 7.29481 3.74997 6.84378C2.82184 6.84378 1.89372 6.84378 0.937467 6.84378ZM1.92184 9.18753C1.9175 10.522 1.91416 11.8564 1.91213 13.1908C1.91116 13.8104 1.90984 14.43 1.9077 15.0495C1.90583 15.5895 1.90462 16.1294 1.9042 16.6693C1.90396 16.9553 1.90338 17.2413 1.90202 17.5272C1.90075 17.7963 1.90035 18.0653 1.90063 18.3344C1.90058 18.4332 1.90021 18.5321 1.89949 18.6309C1.89856 18.7657 1.89878 18.9004 1.89929 19.0352C1.89875 19.0745 1.8982 19.1138 1.89764 19.1542C1.89957 19.3415 1.90811 19.4316 2.01114 19.5935C2.1264 19.7039 2.17423 19.7305 2.332 19.752C2.54541 19.7274 2.61461 19.651 2.76559 19.5C2.82626 19.318 2.81876 19.146 2.8181 18.9563C2.81816 18.8938 2.81816 18.8938 2.81823 18.8301C2.8183 18.69 2.81804 18.5498 2.81779 18.4097C2.81777 18.3095 2.81778 18.2092 2.81781 18.109C2.81782 17.8364 2.81755 17.5638 2.81722 17.2911C2.81693 17.0064 2.8169 16.7217 2.81684 16.437C2.8167 15.8976 2.81631 15.3583 2.81584 14.8189C2.81532 14.2049 2.81506 13.591 2.81483 12.977C2.81434 11.7139 2.8135 10.4507 2.81247 9.18753C2.51856 9.18753 2.22465 9.18753 1.92184 9.18753ZM22.125 12.7969C22.1217 13.6485 22.1192 14.5001 22.1177 15.3517C22.117 15.7471 22.116 16.1425 22.1144 16.5379C22.113 16.8826 22.112 17.2272 22.1117 17.5718C22.1116 17.7543 22.1111 17.9368 22.1101 18.1193C22.1091 18.2911 22.1088 18.4628 22.1091 18.6346C22.109 18.7277 22.1082 18.8207 22.1075 18.9138C22.1077 18.9693 22.1079 19.0249 22.1081 19.0821C22.1079 19.1303 22.1078 19.1784 22.1077 19.2281C22.133 19.4202 22.2151 19.5433 22.3506 19.6787C22.4931 19.7561 22.574 19.7601 22.7343 19.7344C22.9401 19.6023 22.9401 19.6023 23.0466 19.3917C23.0636 19.257 23.0682 19.1277 23.0681 18.9919C23.0682 18.9371 23.0682 18.8824 23.0683 18.826C23.0681 18.7663 23.068 18.7067 23.0678 18.6452C23.0678 18.5815 23.0678 18.5177 23.0678 18.4539C23.0678 18.2812 23.0675 18.1084 23.0672 17.9357C23.0669 17.755 23.0669 17.5743 23.0668 17.3936C23.0667 17.0517 23.0663 16.7097 23.0658 16.3677C23.0653 15.9783 23.0651 15.5889 23.0648 15.1995C23.0643 14.3986 23.0635 13.5978 23.0625 12.7969C22.7531 12.7969 22.4437 12.7969 22.125 12.7969Z" fill="black"/>
<path d="M16.7123 6.38266C16.8313 6.48747 16.947 6.59492 17.062 6.70401C17.1294 6.76682 17.1294 6.76682 17.1981 6.8309C18.508 8.07723 19.2608 9.89628 19.3252 11.6916C19.3661 13.6324 18.7541 15.5193 17.4084 16.9439C17.3616 16.9927 17.3147 17.0414 17.2676 17.09C17.2093 17.1502 17.1519 17.2113 17.0946 17.2725C15.8876 18.5325 14.0675 19.279 12.3341 19.3229C10.2628 19.3479 8.38984 18.6995 6.89015 17.2509C6.84676 17.2105 6.80338 17.17 6.75868 17.1284C5.47034 15.8966 4.73759 14.0781 4.67384 12.3118C4.6306 10.2823 5.30047 8.41733 6.70265 6.93838C6.74452 6.89349 6.7864 6.84859 6.82954 6.80234C9.40623 4.09416 13.9006 4.00782 16.7123 6.38266ZM7.24087 7.79747C6.05783 9.13291 5.59763 10.8071 5.6714 12.5634C5.78747 14.203 6.65649 15.75 7.87452 16.829C9.25394 17.9801 10.9728 18.4748 12.7567 18.3145C14.1903 18.129 15.4092 17.4839 16.4526 16.5009C16.4838 16.4728 16.5149 16.4447 16.5469 16.4157C17.6015 15.4253 18.2639 13.8799 18.3335 12.4428C18.3856 10.5909 17.8263 8.96878 16.5599 7.5961C15.5202 6.49913 14.0013 5.73519 12.4787 5.66692C10.443 5.6146 8.64566 6.28236 7.24087 7.79747Z" fill="black"/>
</g>
<defs>
<clipPath id="clip0_43_843">
<rect width="24" height="24" fill="white"/>
</clipPath>
</defs>
</svg>
