<svg width="24" height="24" viewBox="0 0 24 24" fill="none" xmlns="http://www.w3.org/2000/svg">
<path d="M7.21889 0.0397187C6.7589 0.159717 6.3539 0.489714 6.1439 0.919709L6.01891 1.16971L6.00391 4.57967L5.98891 7.98463L4.95392 8.00463L3.91393 8.01963L3.53393 8.20463C3.07894 8.42963 2.79894 8.71962 2.57894 9.18462L2.41895 9.51962V15.1946V20.8695L2.57894 21.2045C2.77894 21.6245 3.06894 21.9445 3.42393 22.1245C3.64893 22.2445 3.69393 22.2895 3.66893 22.3695C3.51893 22.8695 3.61393 23.2695 3.96393 23.6195C4.47392 24.1245 5.11392 24.1245 5.62391 23.6195C5.91891 23.3245 6.02391 23.0345 5.97891 22.6445L5.94891 22.3945H7.59389H9.23887L9.20887 22.6445C9.16387 23.0345 9.26887 23.3245 9.56387 23.6195C10.0739 24.1245 10.7139 24.1245 11.2238 23.6195C11.5738 23.2695 11.6738 22.8645 11.5188 22.3695C11.4938 22.2845 11.5288 22.2495 11.7188 22.1545C12.0888 21.9745 12.3788 21.6695 12.5888 21.2395L12.7738 20.8545L15.6238 22.2245C17.1888 22.9795 18.5188 23.5945 18.5788 23.5945C18.6388 23.5945 18.7438 23.5445 18.8088 23.4845C18.9588 23.3495 23.9937 12.8896 23.9937 12.7196C23.9937 12.6546 23.9537 12.5596 23.9037 12.4996C23.8587 12.4446 22.1437 11.5946 20.0988 10.6146C16.0788 8.68462 16.1388 8.70462 15.6538 8.86462C15.1838 9.02462 15.1238 9.11962 13.9188 11.6246L12.8188 13.9196L12.7938 11.7196L12.7688 9.51962L12.6088 9.18462C12.3888 8.71962 12.1088 8.42963 11.6538 8.20463L11.2738 8.01963L10.2339 8.00463L9.19887 7.98463L9.18387 4.57967L9.16887 1.16971L8.99887 0.85471C8.71388 0.329716 8.27888 0.0547185 7.69889 0.0197189C7.51889 0.00971902 7.30389 0.014719 7.21889 0.0397187ZM8.03388 0.929709C8.10388 0.979708 8.20888 1.08971 8.26388 1.16471C8.36888 1.2997 8.36888 1.3597 8.38388 4.64967L8.39388 7.99463H7.59389H6.7939V4.72467C6.7939 2.52469 6.8139 1.4047 6.8489 1.3097C6.9189 1.12471 7.08389 0.949709 7.26889 0.86471C7.46889 0.769711 7.86389 0.80471 8.03388 0.929709ZM5.99391 9.79461V10.7946H6.3939H6.7939V9.79461V8.79462H7.59389H8.39388V9.79461V10.7946H8.79388H9.19387V9.79461V8.79462H10.0739C10.6239 8.79462 11.0339 8.81962 11.1638 8.85462C11.4388 8.93462 11.8538 9.34962 11.9338 9.62461C11.9788 9.77461 11.9938 10.5996 11.9938 12.7296V15.6345L11.2588 17.1495C10.5489 18.6245 10.5239 18.6795 10.5239 18.9945C10.5239 19.5795 10.8089 19.9295 11.5588 20.2695C11.9838 20.4595 11.9988 20.4745 11.9738 20.6095C11.8938 21.0095 11.5238 21.4245 11.1538 21.5345C10.8689 21.6195 4.31392 21.6195 4.02393 21.5345C3.74893 21.4545 3.33394 21.0395 3.25394 20.7645C3.16894 20.4645 3.16894 9.92461 3.25394 9.62461C3.32894 9.36962 3.74893 8.93962 3.99393 8.85962C4.09393 8.82962 4.56892 8.80462 5.08392 8.79962L5.99391 8.79462V9.79461ZM19.5738 11.2496C21.4687 12.1596 23.0237 12.9146 23.0337 12.9196C23.0737 12.9546 22.7187 13.6446 22.6737 13.6246C22.1437 13.4096 15.7938 10.3096 15.7338 10.2346C15.5388 10.0146 15.7188 9.59461 16.0088 9.59461C16.0738 9.59461 17.6788 10.3396 19.5738 11.2496ZM18.8838 12.6946C20.7837 13.6096 22.3437 14.3746 22.3437 14.3896C22.3437 14.4296 18.4388 22.5595 18.3938 22.6095C18.3638 22.6445 11.7538 19.5045 11.4588 19.3195C11.1888 19.1445 11.1588 19.2145 13.0988 15.1846C14.0938 13.1146 14.9738 11.2896 15.0538 11.1246L15.1988 10.8346L15.3088 10.9346C15.3688 10.9896 16.9788 11.7796 18.8838 12.6946ZM5.06892 22.5195C5.31891 22.7645 5.14392 23.1945 4.79392 23.1945C4.58892 23.1945 4.39392 22.9995 4.39392 22.7945C4.39392 22.5895 4.58892 22.3945 4.79392 22.3945C4.88892 22.3945 4.99392 22.4395 5.06892 22.5195ZM10.6689 22.5195C10.9189 22.7645 10.7439 23.1945 10.3939 23.1945C10.1889 23.1945 9.99386 22.9995 9.99386 22.7945C9.99386 22.5895 10.1889 22.3945 10.3939 22.3945C10.4889 22.3945 10.5939 22.4395 10.6689 22.5195Z" fill="black"/>
<path d="M4.79395 16.1951V20.7951H5.19394H5.59394V16.1951V11.5952H5.19394H4.79395V16.1951Z" fill="black"/>
<path d="M7.19336 16.1951V20.7951H7.59336H7.99335V16.1951V11.5952H7.59336H7.19336V16.1951Z" fill="black"/>
<path d="M9.59375 16.1951V20.7951H9.99375H10.3937V16.1951V11.5952H9.99375H9.59375V16.1951Z" fill="black"/>
<path d="M16.5185 13.1693C15.6785 13.3943 15.0135 13.9493 14.6685 14.7043C14.1735 15.7893 14.3835 16.9742 15.2185 17.8242C15.7885 18.4042 16.4235 18.6642 17.2435 18.6642C18.0485 18.6592 18.6635 18.3792 19.2485 17.7542C20.2735 16.6592 20.2385 14.9943 19.1635 13.9143C18.7785 13.5243 18.2885 13.2493 17.8035 13.1493C17.4485 13.0743 16.8285 13.0843 16.5185 13.1693ZM17.1035 14.1043C16.8885 14.2943 16.6735 14.5393 16.4085 14.8843L16.3185 14.9993L15.9785 14.8443C15.7935 14.7643 15.6435 14.6743 15.6435 14.6543C15.6435 14.5993 15.9235 14.3393 16.1335 14.1943C16.3635 14.0393 16.8185 13.8993 17.1085 13.8993L17.3485 13.8943L17.1035 14.1043ZM17.7935 15.3243C17.7635 15.4693 17.7185 15.6043 17.6935 15.6193C17.6285 15.6593 17.0935 15.3943 17.0935 15.3193C17.0935 15.2793 17.2585 15.0843 17.4585 14.8843L17.8185 14.5193L17.8335 14.7843C17.8435 14.9343 17.8235 15.1743 17.7935 15.3243ZM19.0535 15.1443C19.1635 15.4393 19.2335 16.1693 19.1535 16.2842C19.1185 16.3342 19.0335 16.3142 18.7735 16.1892C18.4835 16.0543 18.4385 16.0143 18.4635 15.9243C18.5635 15.5743 18.6435 15.0943 18.6435 14.8293L18.6485 14.5193L18.7985 14.6943C18.8785 14.7893 18.9935 14.9893 19.0535 15.1443ZM15.6185 15.5543C15.7985 15.6443 15.9435 15.7393 15.9435 15.7693C15.9435 15.7943 15.9085 15.9443 15.8685 16.0943C15.8285 16.2442 15.7785 16.5692 15.7585 16.8092L15.7285 17.2492L15.5635 17.0142C15.2885 16.6292 15.1485 16.0693 15.2135 15.6243C15.2335 15.4993 15.2585 15.3943 15.2685 15.3943C15.2835 15.3943 15.4385 15.4643 15.6185 15.5543ZM17.0485 16.2442L17.3485 16.3992L17.2335 16.5592C17.0935 16.7592 16.6435 17.1942 16.5785 17.1942C16.5485 17.1942 16.5385 17.0592 16.5585 16.8292C16.5935 16.4742 16.6735 16.0943 16.7235 16.0943C16.7335 16.0943 16.8835 16.1643 17.0485 16.2442ZM18.4585 16.9242L18.8185 17.1092L18.5785 17.3242C18.4485 17.4392 18.2185 17.5992 18.0735 17.6692C17.8135 17.7942 17.1685 17.9392 17.1135 17.8792C17.0985 17.8642 17.2285 17.7142 17.4085 17.5492C17.5835 17.3792 17.8085 17.1342 17.8985 16.9942C17.9935 16.8592 18.0735 16.7442 18.0835 16.7442C18.0885 16.7442 18.2585 16.8242 18.4585 16.9242Z" fill="black"/>
<path d="M13.4738 18.991L13.2988 19.331L15.0988 20.196C16.0888 20.671 16.9038 21.051 16.9138 21.041C16.9988 20.946 17.2438 20.376 17.2088 20.341C17.1538 20.286 13.7438 18.646 13.6888 18.646C13.6638 18.646 13.5688 18.801 13.4738 18.991Z" fill="black"/>
<path d="M11.0933 0.0302484C10.1884 0.115248 9.94336 0.160247 9.94336 0.230246C9.94336 0.275246 9.96836 0.455244 10.0034 0.630242L10.0634 0.955238L10.2634 0.925239C10.9433 0.83024 11.7533 0.78524 12.4033 0.81024L13.1383 0.84024L13.1633 0.680241C13.1783 0.590242 13.1983 0.415244 13.2133 0.290246L13.2383 0.0602481L12.8583 0.0252485C12.4783 -0.00475118 11.4283 -0.00475118 11.0933 0.0302484Z" fill="black"/>
<path d="M18.3387 0.570241L17.2087 1.14023L16.7887 0.885238C16.0837 0.455242 15.6537 0.340244 15.1138 0.440243C14.6738 0.520242 14.3088 0.725239 13.9338 1.09524C13.5638 1.45023 13.5038 1.63023 13.6838 1.83523C13.7288 1.89023 15.3088 2.87522 17.1837 4.0202C20.9687 6.32518 20.8787 6.28018 21.4187 6.12518C21.7037 6.04018 21.7637 5.99518 22.6587 5.10519C23.8337 3.9302 23.8087 4.0402 23.0787 3.31021C22.6637 2.89522 22.5337 2.79522 22.4187 2.79522C22.3237 2.79522 22.0887 2.91522 21.7337 3.15021L21.1937 3.51021L20.2937 2.91522C19.7987 2.59022 19.3937 2.30522 19.3937 2.29022C19.3937 2.27522 19.6187 1.96023 19.8937 1.59523C20.5137 0.765239 20.5187 0.750239 20.0787 0.310244C19.8287 0.0652466 19.7287 -0.00475264 19.6137 0.000247309C19.5337 0.000247309 18.9737 0.250245 18.3387 0.570241ZM18.8687 1.63023C18.3987 2.25022 18.3387 2.39522 18.4387 2.59022C18.5137 2.73022 21.0537 4.3952 21.1937 4.3952C21.2637 4.3952 21.5337 4.2552 21.8037 4.0702C22.0737 3.8902 22.3087 3.74521 22.3337 3.74521C22.3587 3.74521 22.4287 3.80021 22.4987 3.8752L22.6137 4.0002L21.9087 4.7052C21.2587 5.34519 21.1837 5.40519 21.0537 5.38019C20.8737 5.34519 14.6438 1.54023 14.6738 1.48523C14.7238 1.40023 15.0788 1.25523 15.2938 1.22023C15.6087 1.17523 15.8887 1.27523 16.5337 1.66523C16.8337 1.84523 17.1337 1.99523 17.1987 1.99023C17.2637 1.99023 17.7587 1.76523 18.2937 1.49523C18.8287 1.22523 19.2837 1.00024 19.3087 1.00024C19.3287 0.995236 19.1337 1.28023 18.8687 1.63023Z" fill="black"/>
<path d="M4.49375 2.63024C3.47876 3.42523 2.39377 4.68022 1.66878 5.88521C-0.0811998 8.80517 -0.481195 12.4751 0.593793 15.7451C0.788791 16.3451 1.19379 17.2951 1.25379 17.2951C1.28879 17.2951 1.88878 17.0101 1.93378 16.9701C1.93878 16.9651 1.86378 16.7851 1.76378 16.5651C1.66878 16.3501 1.48878 15.8751 1.36878 15.5151C-0.1012 11.1251 1.32378 6.2402 4.93375 3.30523C5.20874 3.08024 5.38874 2.90524 5.37374 2.86524C5.33874 2.77024 4.97875 2.29525 4.94375 2.29525C4.92875 2.29525 4.72375 2.44524 4.49375 2.63024Z" fill="black"/>
<path d="M12.1241 4.67554C11.7341 4.77054 11.2391 5.04054 10.8541 5.36554C10.5691 5.60553 10.2891 5.74553 10.0741 5.74553C10.0091 5.74553 9.99414 5.81053 9.99414 6.15053V6.56052L10.2491 6.53052C10.5791 6.49052 11.0541 6.26553 11.3441 6.01053C11.6891 5.70553 11.8491 5.61053 12.1841 5.50054C12.7241 5.31554 13.4291 5.40554 13.8691 5.71053C13.9491 5.76553 14.1341 5.92053 14.2791 6.05053C14.8291 6.54552 15.4591 6.57052 16.0391 6.12053C16.4041 5.83553 16.4641 5.85553 17.1641 6.53552C18.1591 7.50051 18.659 7.87551 19.589 8.3405C20.449 8.7755 21.324 9.0305 22.344 9.1455C22.604 9.17549 22.824 9.20549 22.834 9.22049C22.894 9.28049 23.144 10.7155 23.144 11.0055V11.1955H23.544H23.944V10.9955C23.944 10.4705 23.664 9.0555 23.394 8.25051C23.234 7.75551 22.814 6.75552 22.739 6.67052C22.689 6.62052 22.044 6.91052 22.044 6.98052C22.044 7.00552 22.169 7.31052 22.319 7.67051L22.589 8.3205L22.444 8.3355C22.219 8.3605 21.484 8.21051 20.894 8.02051C19.764 7.65051 18.939 7.12552 17.8441 6.06553C17.2091 5.45554 17.0191 5.29554 16.8191 5.23054C16.3691 5.07554 15.9591 5.15054 15.5491 5.47054C15.2341 5.71553 15.1141 5.70053 14.7341 5.37054C13.9791 4.71054 13.0291 4.45555 12.1241 4.67554Z" fill="black"/>
<path d="M15.3885 22.6702C15.3735 22.6802 15.0985 22.7602 14.7735 22.8402C14.1885 22.9902 13.4585 23.1102 12.7586 23.1702L12.3936 23.2052V23.6052V24.0002L12.8086 23.9702C13.5235 23.9102 14.2485 23.7952 14.8685 23.6352C15.1985 23.5552 15.5185 23.4752 15.5835 23.4602C15.7185 23.4252 15.7185 23.4102 15.5835 22.9852C15.4785 22.6652 15.4435 22.6102 15.3885 22.6702Z" fill="black"/>
</svg>
