<svg width="27" height="24" viewBox="0 0 27 24" fill="none" xmlns="http://www.w3.org/2000/svg">
<path d="M0 7.40463C0.0769939 6.6387 0.242052 5.91587 0.502021 5.21857C0.830056 4.3387 1.28602 3.53037 1.90296 2.81559C2.0554 2.63897 2.19818 2.4547 2.36855 2.29409C2.60766 2.06867 2.82922 2.04773 3.03103 2.2346C3.22382 2.41311 3.21866 2.69356 2.99913 2.92187C2.68089 3.25284 2.39401 3.60662 2.13303 3.98465C1.57018 4.79991 1.21957 5.70013 1.00586 6.66281C0.835319 7.43107 0.806375 8.21027 0.8606 8.98553C0.93558 10.0575 1.21616 11.0856 1.61788 12.087C2.08564 13.2531 2.75815 14.295 3.48033 15.3084C3.68098 15.5899 3.89126 15.8765 4.18199 16.1174C4.27769 15.0109 4.40345 13.9281 4.67309 12.859C4.48673 12.7958 4.35078 12.9066 4.20104 12.919C3.265 12.997 2.60973 12.2901 2.37509 11.5573C2.13334 10.8023 2.31366 10.1027 2.69289 9.44389C3.03766 8.84491 3.38649 8.25119 3.68565 7.62516C4.10474 6.74814 4.73919 6.08054 5.74594 5.8873C6.45206 5.75176 7.12958 5.87443 7.77875 6.17189C7.8811 6.21879 7.98432 6.26468 8.08287 6.3188C8.21321 6.39037 8.31481 6.3697 8.43732 6.2788C9.55799 5.44727 10.8137 4.97048 12.2022 4.80418C13.6417 4.63178 15.0366 4.76895 16.3953 5.27269C17.0389 5.51128 17.6358 5.83997 18.1787 6.25646C18.3416 6.38142 18.4636 6.37724 18.6228 6.29266C19.1249 6.02602 19.6517 5.86902 20.2288 5.84464C21.2673 5.80078 22.0458 6.24228 22.6304 7.06327C23.058 7.6636 23.2598 8.38924 23.681 8.99686C23.9323 9.35943 24.1304 9.75269 24.263 10.1785C24.5377 11.0609 24.2945 11.9824 23.5805 12.5702C23.1968 12.886 22.7371 12.9949 22.2399 12.878C22.1894 12.8662 22.1393 12.8519 22.0885 12.8419C22.0729 12.8389 22.0553 12.8463 21.9888 12.8568C22.1909 13.9255 22.41 14.9927 22.4546 16.114C22.7672 15.8823 22.9643 15.5761 23.173 15.2939C24.0126 14.1584 24.7434 12.9552 25.2113 11.6153C25.4786 10.85 25.6682 10.0639 25.7486 9.24886C25.8718 7.99968 25.7681 6.78466 25.3359 5.60322C25.0395 4.7933 24.6208 4.05578 24.0626 3.39313C23.5106 2.73779 22.8769 2.1879 22.1317 1.76478C21.396 1.34699 20.6118 1.06601 19.7745 0.94842C18.0734 0.709508 16.5229 1.13153 15.082 2.03275C14.5595 2.3595 14.1054 2.76942 13.6389 3.16557C13.4371 3.33699 13.2115 3.34022 13.0139 3.17116C12.3905 2.63795 11.7647 2.11278 11.0324 1.72401C10.323 1.34737 9.57683 1.07639 8.78983 0.957745C7.71767 0.796108 6.65396 0.871941 5.62566 1.25362C5.1635 1.42516 4.71539 1.62546 4.2953 1.88591C4.03478 2.04742 3.71888 2.01033 3.59708 1.80969C3.4559 1.57714 3.52002 1.3105 3.79765 1.14363C4.73277 0.58156 5.73121 0.198504 6.82521 0.072606C8.11072 -0.0753311 9.35289 0.0714782 10.5622 0.533208C11.5354 0.904766 12.3942 1.45804 13.1816 2.1312C13.2207 2.16466 13.2599 2.19801 13.3074 2.23847C13.6251 2.05444 13.8664 1.77955 14.1613 1.57205C14.982 0.994683 15.8633 0.553184 16.8283 0.276665C17.747 0.013421 18.693 -0.0533605 19.6294 0.0399004C20.7529 0.151792 21.8137 0.511506 22.7871 1.11531C23.9353 1.82757 24.8499 2.76272 25.5316 3.92089C26.1432 4.95991 26.4891 6.09329 26.6376 7.30866C26.6427 8.00577 26.6427 8.68333 26.6427 9.38528C26.5137 10.2631 26.3444 11.1067 26.0427 11.9192C25.6867 12.8778 25.2279 13.7816 24.6889 14.6525C23.7236 16.212 22.4699 17.5191 21.1671 18.7872C21.0249 18.9255 20.8765 19.0592 20.7191 19.1796C20.4882 19.3561 20.243 19.3305 20.076 19.1293C19.9135 18.9335 19.9325 18.7157 20.1443 18.5082C20.5277 18.1326 20.8931 17.7332 21.3108 17.3998C21.6376 17.1389 21.663 16.8276 21.6252 16.4763C21.5607 15.8773 21.5126 15.277 21.4262 14.6798C21.2214 13.2644 20.8607 11.8933 20.3085 10.5745C19.9565 9.73371 19.498 8.95392 18.9331 8.23668C18.1964 7.30125 17.2877 6.59562 16.1827 6.14425C15.4004 5.82472 14.5902 5.67192 13.7451 5.62036C12.4496 5.54133 11.2172 5.75675 10.0565 6.3194C9.13679 6.76524 8.36013 7.40632 7.72272 8.21328C6.48226 9.78371 5.84255 11.6111 5.42941 13.5365C5.25035 14.3711 5.13056 15.2145 5.06361 16.0656C5.05554 16.1682 5.02768 16.2691 5.01582 16.3717C4.9648 16.8128 5.07357 17.1573 5.42022 17.4961C7.19227 19.2279 9.18392 20.6591 11.2993 21.9322C11.884 22.2842 12.4822 22.6109 13.0745 22.9487C13.2601 23.0545 13.4039 23.0351 13.5775 22.9389C14.7949 22.2644 15.9978 21.5679 17.1499 20.7837C17.7429 20.3801 18.3067 19.9367 18.9043 19.5406C19.1539 19.3752 19.4305 19.41 19.5683 19.6209C19.6977 19.8189 19.6291 20.0892 19.4084 20.2568C17.838 21.4488 16.1936 22.5264 14.4577 23.4629C14.1993 23.6023 13.9444 23.7483 13.6901 23.895C13.4432 24.0374 13.2038 24.0318 12.9522 23.8974C11.679 23.2176 10.432 22.492 9.23118 21.6923C8.17523 20.9892 7.15696 20.2333 6.18865 19.4095C5.42851 18.7628 4.71899 18.0645 4.03627 17.3414C3.10381 16.3538 2.29494 15.2682 1.61344 14.0891C0.987051 13.0052 0.513832 11.862 0.22586 10.6434C0.155189 10.3444 0.0962369 10.0426 0.0159486 9.73194C1.55081e-09 8.95759 0 8.19331 0 7.40463ZM22.1682 11.8816C22.5171 12.0989 22.7576 12.0977 23.0242 11.8774C23.4777 11.5026 23.6459 10.8517 23.3767 10.3281C22.9311 9.46135 22.4606 8.60723 21.9912 7.75298C21.5921 7.02675 20.9874 6.64817 20.1412 6.72459C19.7897 6.75633 19.4452 6.82662 19.1463 7.03625C19.2095 7.29157 19.4224 7.40629 19.5588 7.57992C20.3393 8.57306 20.9492 9.65976 21.3613 10.8567C21.5053 11.2749 21.7557 11.6202 22.1682 11.8816ZM7.32526 7.29704C7.36684 7.20478 7.48818 7.16527 7.49438 7.04946C6.60787 6.4972 5.31378 6.56236 4.68741 7.68059C4.24917 8.46295 3.85915 9.27088 3.39531 10.0405C3.10756 10.5179 3.02213 11.0387 3.34073 11.5603C3.65673 12.0776 4.0622 12.1719 4.55442 11.828C4.92075 11.5721 5.14617 11.2206 5.29952 10.8018C5.76602 9.52809 6.39918 8.34743 7.32526 7.29704Z" fill="black"/>
<path d="M14.8987 13.3964C14.4621 13.6221 14.0261 13.6758 13.5835 13.4923C13.3839 13.4095 13.2137 13.4359 13.0193 13.5114C12.4778 13.7215 11.8275 13.5637 11.4454 13.1523C11.252 12.9441 11.2166 12.6811 11.3605 12.5221C11.526 12.3393 11.7986 12.3007 12.0132 12.49C12.3563 12.7927 12.6603 12.7798 13.0046 12.4975C13.2298 12.3127 13.4427 12.3469 13.71 12.5463C14.0389 12.7916 14.2466 12.7877 14.5682 12.5301C14.8336 12.3175 15.1079 12.3164 15.2846 12.5273C15.4345 12.7061 15.3867 12.976 15.1588 13.1935C15.0844 13.2646 14.9958 13.3207 14.8987 13.3964Z" fill="black"/>
<path d="M12.6048 11.1602C13.1149 11.1602 13.6005 11.1606 14.0861 11.1603C14.288 11.1602 14.4767 11.191 14.5298 11.4267C14.5832 11.664 14.4763 11.8075 14.2065 11.9052C13.6257 12.1155 13.0454 12.1166 12.4624 11.9154C12.1701 11.8145 12.0571 11.6724 12.1121 11.429C12.1683 11.1804 12.3722 11.1598 12.6048 11.1602Z" fill="black"/>
<path d="M9.50332 10.4992C9.97801 10.4737 10.1149 10.6001 10.111 11.0589C10.1092 11.2726 10.1435 11.4878 10.0722 11.7006C9.98949 11.9475 9.80894 12.0109 9.58438 11.9707C9.37817 11.9337 9.24999 11.8017 9.24652 11.5798C9.24289 11.3466 9.25232 11.1131 9.24345 10.8802C9.23635 10.694 9.36417 10.6059 9.50332 10.4992Z" fill="black"/>
<path d="M17.3375 11.7883C17.1865 11.998 16.9849 12.0233 16.7917 11.9549C16.5908 11.8838 16.5388 11.6862 16.5326 11.488C16.5267 11.2982 16.5211 11.1072 16.5354 10.9182C16.558 10.619 16.7215 10.4755 17.0032 10.4848C17.255 10.4931 17.4057 10.6591 17.3956 10.9526C17.3862 11.2254 17.4519 11.5032 17.3375 11.7883Z" fill="black"/>
</svg>
