<svg width="26" height="24" viewBox="0 0 26 24" fill="none" xmlns="http://www.w3.org/2000/svg">
<path d="M5.95495 0.0773037C4.45598 0.3457 3.12919 1.02429 2.10119 2.05229C1.10863 3.04992 0.536386 4.22478 0.409784 5.55663C0.343951 6.25548 0.343951 13.3351 0.409784 13.963C0.506002 14.8948 0.890872 15.7557 1.5492 16.5204L1.88343 16.9154L1.80241 17.4724C1.62516 18.6979 1.1694 19.8323 0.409784 20.9616C0.247734 21.1996 0.0907475 21.4426 0.060363 21.5034C-0.177649 21.9693 0.328759 22.5973 0.870615 22.5061C1.14914 22.4605 1.3517 22.2681 1.72138 21.711C2.45567 20.6071 3.06842 19.1132 3.26592 17.918L3.29631 17.7408L3.76727 17.8623C4.40534 18.0295 5.30168 18.0396 5.94482 17.8826C7.62609 17.4673 8.89211 16.1709 9.3023 14.439C9.3732 14.1554 9.38839 13.6288 9.40865 11.2537C9.43397 8.05829 9.4289 7.94688 9.14532 7.69874C8.86173 7.4506 8.46167 7.43034 8.17808 7.65316C7.90462 7.87092 7.90462 7.86079 7.90462 10.9195C7.90462 13.1781 7.88942 13.8161 7.82866 14.0896C7.63622 14.9961 7.0893 15.7253 6.26892 16.1507C4.50156 17.0825 2.35945 16.0545 1.94926 14.0795C1.88343 13.7604 1.87837 13.1072 1.88849 9.52181L1.90369 5.33888L2.0708 4.86286C2.44554 3.78421 3.12919 2.96889 4.20278 2.3055C4.88643 1.88518 5.69162 1.61172 6.53732 1.5155C7.11969 1.44967 13.1257 1.44967 13.4802 1.5155C13.7941 1.57627 14.3664 1.8396 14.6652 2.05736C14.8221 2.17383 16.2857 3.96651 16.7566 4.60965C16.8073 4.68561 16.8022 4.74638 16.711 4.9692C16.1135 6.45804 15.8603 7.7038 15.8198 9.34963C15.7793 10.8739 15.9211 11.988 16.2857 13.0667C16.3566 13.2692 16.4123 13.4515 16.4123 13.4768C16.4123 13.4971 15.2931 13.5174 13.9309 13.5174C11.1963 13.5174 11.2672 13.5072 11.0393 13.8313C10.8772 14.0542 10.8772 14.4492 11.0393 14.672C11.2672 14.991 11.2064 14.9859 13.8296 14.9859C15.1361 14.9859 16.2097 15.0062 16.2097 15.0265C16.2097 15.0518 16.1591 15.1125 16.1034 15.1683C15.9514 15.2999 15.0602 16.5001 14.7715 16.9508C13.6169 18.7637 12.9687 20.6223 12.8117 22.5821C12.7509 23.286 12.756 23.3265 12.8573 23.5544C12.989 23.8531 13.2118 24 13.5308 24C13.9916 24 14.2854 23.6607 14.2854 23.1239C14.2854 22.9619 14.3107 22.6124 14.3411 22.339C14.5993 19.9639 15.9008 17.4572 17.9517 15.3759L18.3366 14.9859H18.9595C20.261 14.9859 21.7853 14.7074 23.4513 14.1656C23.8818 14.0238 24.3831 13.8415 24.5604 13.7554C25.163 13.4718 25.7251 12.7679 25.877 12.0994C25.953 11.7753 25.9479 7.37464 25.877 7.02522C25.6846 6.11875 24.9098 5.39458 23.9831 5.26292C23.7906 5.2376 22.8031 5.21228 21.7954 5.21228C20.0027 5.21228 19.9521 5.20721 19.6381 5.0958C19.2735 4.96414 18.9291 4.7717 18.6911 4.5742C18.605 4.49824 17.9973 3.75382 17.339 2.91319C16.6807 2.07761 16.0628 1.30281 15.9616 1.19646C15.5311 0.740698 14.6955 0.274803 13.9916 0.0924959C13.6321 0.00134252 13.4042 -0.00372156 9.98595 0.00134252C7.07411 0.00640659 6.27905 0.0215988 5.95495 0.0773037ZM18.053 5.96682C18.1189 6.06811 18.7519 6.38208 19.1823 6.52894C19.4305 6.60996 19.8001 6.69605 19.9976 6.71124C20.2002 6.7315 20.3622 6.74669 20.3622 6.75176C20.3622 6.75682 20.3065 6.97458 20.2356 7.23791C20.1698 7.50124 20.0736 8.00765 20.023 8.36213L19.9318 9.01033H18.6303H17.3238V8.84322C17.3289 8.34694 17.5669 7.11637 17.81 6.3365C17.9366 5.9415 17.9923 5.86048 18.053 5.96682ZM24.0084 6.82772C24.1046 6.87836 24.2363 6.99483 24.3021 7.08599C24.4084 7.24297 24.4135 7.30374 24.4135 8.12918V9.01033H22.9399H21.4611L21.4966 8.66598C21.5371 8.26592 21.6789 7.58733 21.8308 7.08599L21.9372 6.7315H22.8842C23.7096 6.7315 23.8565 6.74163 24.0084 6.82772ZM20.023 11.1727C20.0938 11.75 20.3015 12.7628 20.4382 13.2439C20.4686 13.3351 20.4483 13.3553 20.3015 13.3857C20.023 13.4363 18.9443 13.5174 18.5088 13.5174H18.0986L17.9619 13.2135C17.6479 12.5147 17.42 11.6437 17.3441 10.8435L17.3086 10.4789H18.6253H19.9369L20.023 11.1727ZM24.4135 11.1474C24.4135 12.2058 24.3325 12.2919 22.9956 12.7324C22.5246 12.8844 22.0992 13.011 22.0385 13.011C21.9321 13.011 21.9372 13.0261 21.7599 12.3222C21.6536 11.9019 21.4763 10.8638 21.4763 10.6511V10.4789H22.9449H24.4135V11.1474Z" fill="black"/>
<path d="M12.69 4.58386C12.2748 4.81174 12.0469 5.17636 12.0469 5.61693C12.0469 6.60949 13.2471 7.10577 13.9459 6.3968C14.1535 6.18917 14.2447 5.99167 14.27 5.67264C14.2903 5.42956 14.2751 5.34853 14.1485 5.11052C13.9307 4.70033 13.6674 4.53322 13.2065 4.51803C12.9432 4.50283 12.8014 4.52309 12.69 4.58386Z" fill="black"/>
</svg>
