<svg width="24" height="24" viewBox="0 0 24 24" fill="none" xmlns="http://www.w3.org/2000/svg">
<g clip-path="url(#clip0_43_1173)">
<path d="M8.57344 0.0882827C7.89844 0.303908 7.45313 0.84297 7.35938 1.56016C7.33594 1.74297 7.3125 2.3336 7.3125 2.86797V3.83359L6.34219 3.85234C5.19375 3.87578 4.95938 3.93203 4.38281 4.31641C3.8625 4.66797 3.50625 5.13672 3.31406 5.74141C3.19219 6.11172 2.94844 7.86016 3 7.99141C3.08438 8.21641 3.34688 8.26328 3.53438 8.09453C3.64688 8.00078 3.66563 7.91641 3.79688 7.03047C3.87188 6.50078 3.96563 5.98047 4.00313 5.87734C4.17188 5.39453 4.5375 5.00078 5.05781 4.74297L5.40938 4.56953H12.0188H18.6328L18.9844 4.73828C19.4859 4.98203 19.8375 5.35234 20.0297 5.84922C20.0953 6.00859 20.9531 11.6758 20.9531 11.9289C20.9531 11.9898 20.8172 11.9992 20.0719 11.9992H19.1906L18.825 9.45391C18.6234 8.05703 18.4219 6.80078 18.3703 6.66484C18.2016 6.16328 17.775 5.73203 17.25 5.51641L16.9922 5.41328H12.0234C6.4125 5.41328 6.83438 5.38516 6.28594 5.78828C5.97188 6.02266 5.74688 6.31797 5.625 6.66953C5.57813 6.80547 5.37656 8.05703 5.175 9.45391L4.80938 11.9992H3.95156C3.13125 11.9992 3.09375 11.9945 3.09375 11.9102C3.09375 11.8586 3.16875 11.3195 3.25781 10.7148C3.34688 10.1055 3.42188 9.54766 3.42188 9.46797C3.42188 9.28047 3.27656 9.13984 3.07969 9.13984C2.78906 9.13984 2.77031 9.20078 2.55469 10.6539L2.3625 11.9758L2.10938 12.0461C1.79063 12.1305 1.45781 12.4398 1.36875 12.7305C1.33125 12.857 1.3125 13.2789 1.3125 13.9586V14.9898L1.44375 15.2383C1.58906 15.5195 1.89375 15.7445 2.18906 15.7914L2.3625 15.8195L2.79375 18.8195C3.03281 20.4695 3.2625 21.9367 3.30469 22.0773C3.4875 22.6727 3.8625 23.1789 4.3875 23.5305C5.05313 23.9758 5.03906 23.9711 7.57969 23.9898L9.79688 24.0039L9.91406 23.8867C10.0547 23.7461 10.0641 23.582 9.94219 23.432L9.85313 23.3195L7.63125 23.2961L5.41406 23.2727L5.09531 23.1227C4.50938 22.8414 4.05938 22.2977 3.9375 21.7164C3.87656 21.4352 3.09375 16.0117 3.09375 15.8852C3.09375 15.7961 3.12656 15.7961 3.95156 15.8055L4.80469 15.8195L5.18438 18.4445C5.60625 21.3883 5.60625 21.3977 6.05156 21.8664C6.20625 22.0305 6.4125 22.1852 6.60469 22.2789L6.91406 22.4289H12H17.0859L17.3953 22.2789C17.8828 22.0398 18.2813 21.5664 18.4172 21.0648C18.4781 20.8398 18.75 18.9836 18.75 18.7961C18.75 18.4914 18.3938 18.3367 18.1781 18.5523C18.0938 18.632 18.0563 18.8195 17.925 19.7195C17.8406 20.3055 17.7469 20.868 17.7141 20.9664C17.6297 21.2195 17.3625 21.5102 17.0906 21.6367L16.8516 21.7492H12H7.14844L6.91406 21.6367C6.65625 21.5195 6.4125 21.2711 6.30469 21.018C6.26719 20.9289 6.01406 19.293 5.74219 17.3805L5.24531 13.907L5.74219 10.457C6.1875 7.33516 6.24844 6.98359 6.36563 6.74922C6.50625 6.46797 6.80156 6.22891 7.11563 6.13984C7.35469 6.07422 16.6453 6.07422 16.8844 6.13984C17.1984 6.22891 17.4938 6.46797 17.6344 6.74922C17.7516 6.98359 17.8078 7.33047 18.2578 10.4617L18.7547 13.9164L18.5156 15.5852C18.2953 17.1367 18.2813 17.268 18.3516 17.3711C18.4922 17.5867 18.8344 17.5633 18.9422 17.3336C18.9656 17.2727 19.0359 16.907 19.0922 16.5227L19.1953 15.8195L20.0766 15.8055L20.9531 15.7961V15.8992C20.9531 16.1477 20.1094 21.7914 20.0438 21.9648C19.875 22.4477 19.4906 22.8602 18.9844 23.1039L18.6328 23.2727L14.8922 23.2961L11.1469 23.3195L11.0578 23.432C10.9359 23.582 10.9453 23.7461 11.0859 23.8867L11.2031 24.0039L14.9391 23.9898L18.6797 23.9758L18.9938 23.868C19.6031 23.6617 20.1797 23.1883 20.4984 22.6352C20.7422 22.2133 20.8078 21.9039 21.2344 18.9461C21.4641 17.3289 21.6703 15.9602 21.6797 15.8992C21.6984 15.8289 21.7406 15.7961 21.8109 15.7961C21.8719 15.7961 22.0313 15.7258 22.1719 15.6414C22.3688 15.5242 22.4578 15.4352 22.5563 15.2383L22.6875 14.9898V13.9586C22.6875 13.2789 22.6688 12.857 22.6313 12.7305C22.5469 12.4586 22.2094 12.1352 21.9141 12.0461L21.6797 11.9758L21.2484 8.99922C21.0141 7.36328 20.7844 5.90547 20.7422 5.76484C20.4703 4.86953 19.7344 4.17109 18.8203 3.93672C18.5156 3.85703 18.3 3.84297 17.5453 3.84297H16.6406V2.86797C16.6359 2.3336 16.6172 1.75235 16.5984 1.57422C16.5094 0.91797 16.0922 0.35547 15.5156 0.13047C15.3 0.0460952 15.1406 0.0226577 14.5453 0.00859518C13.8328 -0.0101548 13.8328 -0.0101548 13.7109 0.11172C13.5609 0.26172 13.5609 0.439845 13.7109 0.585158C13.8188 0.697658 13.8469 0.702345 14.4516 0.702345C15.0516 0.702345 15.0938 0.707033 15.3328 0.833595C15.4922 0.913283 15.6375 1.03985 15.7266 1.16641L15.8672 1.36797L15.8813 2.60547L15.8953 3.84297H15.5672H15.2438L15.225 2.84453C15.2063 1.72891 15.1828 1.6211 14.8875 1.48047C14.7469 1.41485 14.4281 1.40547 11.9766 1.40547C9.525 1.40547 9.20625 1.41485 9.06563 1.48047C8.77031 1.6211 8.74688 1.72891 8.72813 2.84453L8.70938 3.84297H8.38594H8.05781L8.07188 2.60547L8.08594 1.36797L8.22656 1.16641C8.31563 1.03985 8.46094 0.913283 8.62031 0.833595L8.86875 0.702345H10.6266C11.6578 0.702345 12.4172 0.683595 12.4641 0.65547C12.5109 0.632033 12.5766 0.552345 12.6047 0.472658C12.6516 0.360158 12.6516 0.313283 12.5906 0.196095C12.5531 0.121095 12.4828 0.0460952 12.4453 0.0273452C12.4031 0.0132827 11.5734 -0.000779819 10.6031 0.00390768C9.0375 0.00390768 8.80781 0.0132827 8.57344 0.0882827ZM14.4844 2.97578V3.84297H11.9766H9.46875V2.97578V2.1086H11.9766H14.4844V2.97578ZM4.6875 12.8008C4.6875 12.8523 4.66406 13.0398 4.63594 13.2227L4.57969 13.5461H3.3H2.01563V13.2414C2.01563 12.9742 2.02969 12.918 2.13281 12.8195L2.24531 12.7023H3.46875C4.66875 12.7023 4.6875 12.7023 4.6875 12.8008ZM21.8672 12.8195C21.9703 12.918 21.9844 12.9742 21.9844 13.2414V13.5461H20.7H19.4203L19.3922 13.4148C19.3781 13.3445 19.35 13.157 19.3313 12.993L19.2984 12.7023H20.5266H21.7547L21.8672 12.8195ZM4.63594 14.6008C4.66406 14.7977 4.6875 14.9852 4.6875 15.0227C4.6875 15.0836 4.50469 15.093 3.45 15.093H2.20781L2.11406 14.9711C2.03906 14.8727 2.01563 14.7789 2.01563 14.5492V14.2492H3.3H4.58438L4.63594 14.6008ZM21.9844 14.5492C21.9844 14.7789 21.9609 14.8727 21.8859 14.9711L21.7922 15.093H20.55C19.4953 15.093 19.3125 15.0836 19.3125 15.0227C19.3125 14.9852 19.3359 14.7977 19.3641 14.6008L19.4156 14.2492H20.7H21.9844V14.5492Z" fill="black"/>
<path d="M7.22363 6.85776C6.95176 6.9937 6.96113 6.95151 6.44551 10.5281L5.95801 13.8984L6.44551 17.3109C6.71738 19.1859 6.95645 20.7609 6.98457 20.8125C7.11582 21.0562 6.94707 21.0468 12.0002 21.0468C17.0533 21.0468 16.8846 21.0562 17.0158 20.8125C17.0439 20.7609 17.283 19.1859 17.5549 17.3109L18.0424 13.8984L17.5549 10.5281C17.0393 6.95151 17.0486 6.9937 16.7768 6.85776C16.6877 6.81089 15.6096 6.79683 12.0002 6.79683C8.39082 6.79683 7.3127 6.81089 7.22363 6.85776ZM7.92207 7.92183V8.3437H7.69707H7.46738L7.50488 8.07183C7.59395 7.46714 7.57988 7.49995 7.75801 7.49995H7.92207V7.92183ZM9.32832 8.06714C9.32832 8.99058 9.39395 9.04683 10.4955 9.04683H11.2502L11.4283 8.88745L11.6018 8.72808L11.6158 8.11401L11.6346 7.49995H11.9768H12.3189L12.3377 8.11401L12.3518 8.72808L12.5252 8.88745L12.7033 9.04683H13.458C14.5549 9.04683 14.6252 8.98589 14.6252 8.0437V7.49995H14.9768H15.3283V8.03901C15.3283 8.62964 15.3705 8.77495 15.5908 8.94839C15.6986 9.03276 15.7783 9.04683 16.1721 9.04683H16.6314L16.6596 9.26714C16.6783 9.3937 16.7018 9.54839 16.7158 9.6187L16.7439 9.74995H16.3502C15.8627 9.74995 15.6658 9.8062 15.4877 9.98901L15.3518 10.1296V10.9218V11.714L15.4877 11.8546C15.6752 12.0515 15.8627 12.0937 16.5096 12.0937C17.1283 12.0937 17.0814 12.0609 17.1377 12.525L17.1658 12.7968H16.4439C15.7783 12.7968 15.7033 12.8062 15.5908 12.8953C15.3611 13.0781 15.3283 13.2046 15.3283 13.9312C15.3283 15.0046 15.4174 15.0937 16.4908 15.0937H17.1658L17.1424 15.2437C17.1283 15.3281 17.1002 15.4875 17.0861 15.5953L17.0533 15.7968H16.4158C15.4127 15.7968 15.3283 15.8859 15.3283 16.9453C15.3283 17.9625 15.4361 18.0937 16.2564 18.0937H16.7439L16.7158 18.225C16.7018 18.2953 16.6783 18.45 16.6596 18.5765L16.6314 18.7968H16.2236C15.4783 18.7968 15.3283 18.9656 15.3283 19.814V20.3437H14.9768H14.6252V19.7906C14.6252 18.8953 14.5127 18.7968 13.4768 18.7968C12.4408 18.7968 12.3283 18.8953 12.3283 19.7906V20.3437H11.9768H11.6252V19.7906C11.6252 18.8953 11.5127 18.7968 10.4768 18.7968C9.44082 18.7968 9.32832 18.8953 9.32832 19.7906V20.3437H8.97676H8.6252V19.814C8.6252 18.975 8.4752 18.7968 7.75332 18.7968H7.36895L7.34082 18.5718C7.32207 18.45 7.29863 18.2953 7.28457 18.225L7.25645 18.0937H7.72051C8.51738 18.0937 8.6252 17.9531 8.6252 16.9453C8.6252 15.8906 8.53613 15.7968 7.56582 15.7968H6.94707L6.92363 15.6421C6.90957 15.5625 6.88145 15.4031 6.86738 15.2906L6.83457 15.0937H7.48613C8.52676 15.0937 8.6252 14.9953 8.6252 13.9546C8.6252 13.2421 8.58301 13.0687 8.36738 12.9C8.24551 12.8062 8.18457 12.7968 7.53301 12.7968H6.83457L6.8627 12.525C6.91895 12.0609 6.87676 12.0937 7.46738 12.0937C8.09082 12.0937 8.27832 12.0468 8.46582 11.8546L8.60176 11.714V10.9218V10.1296L8.46582 9.98901C8.29238 9.8062 8.09082 9.74995 7.62676 9.74995H7.25645L7.28457 9.6187C7.29863 9.54839 7.32207 9.3937 7.34082 9.26714L7.36895 9.04683H7.80488C8.17051 9.04683 8.25488 9.03276 8.3627 8.94839C8.58301 8.77495 8.6252 8.62964 8.6252 8.03901V7.49995H8.97676H9.32832V8.06714ZM10.9221 7.92183V8.3437H10.4768H10.0314V7.92183V7.49995H10.4768H10.9221V7.92183ZM13.9221 7.92183V8.3437H13.4768H13.0314V7.92183V7.49995H13.4768H13.9221V7.92183ZM16.4299 7.64995C16.4439 7.73433 16.4721 7.92651 16.4955 8.07183L16.533 8.3437H16.2799H16.0314V7.92183V7.49995H16.2189C16.3877 7.49995 16.4018 7.50933 16.4299 7.64995ZM7.89863 10.9218V11.3671L7.4627 11.3812L7.02207 11.3953L7.0502 11.264C7.06426 11.1937 7.0877 11.039 7.10176 10.9218C7.11582 10.8046 7.13926 10.65 7.15332 10.5796L7.18145 10.4484L7.5377 10.4625L7.89863 10.4765V10.9218ZM16.8471 10.5796C16.8611 10.6546 16.8846 10.8046 16.8986 10.9218C16.9127 11.039 16.9361 11.1937 16.9502 11.264L16.9783 11.3953L16.5143 11.3812L16.0549 11.3671L16.0408 10.9734C16.0314 10.7578 16.0361 10.5515 16.0502 10.514C16.0689 10.4718 16.1814 10.4531 16.4486 10.4531C16.8189 10.4531 16.8189 10.4531 16.8471 10.5796ZM7.92207 13.9453V14.3906H7.33613C6.76895 14.3906 6.7502 14.3859 6.72676 14.2828C6.69863 14.1515 6.68457 13.8984 6.69395 13.6734L6.70332 13.5H7.3127H7.92207V13.9453ZM17.3064 13.6734C17.3158 13.8984 17.3018 14.1515 17.2736 14.2828C17.2502 14.3859 17.2314 14.3906 16.6408 14.3906H16.0314V13.9453V13.5H16.6643H17.2971L17.3064 13.6734ZM7.92207 16.9453V17.3906H7.55176C7.12988 17.3906 7.16738 17.4281 7.10176 16.8984C7.08301 16.7671 7.05957 16.6265 7.04551 16.5796C7.02676 16.5093 7.06895 16.5 7.47207 16.5H7.92207V16.9453ZM16.9549 16.5796C16.9408 16.6265 16.9174 16.7671 16.8986 16.8984C16.833 17.4281 16.8705 17.3906 16.4252 17.3906H16.0314V16.9453V16.5H16.5049C16.9314 16.5 16.9736 16.5093 16.9549 16.5796ZM7.92207 19.9218V20.3437H7.7627C7.57988 20.3437 7.57051 20.3203 7.51895 19.814L7.48613 19.5H7.70645H7.92207V19.9218ZM10.9221 19.9218V20.3437H10.4768H10.0314V19.9218V19.5H10.4768H10.9221V19.9218ZM13.9221 19.9218V20.3437H13.4768H13.0314V19.9218V19.5H13.4768H13.9221V19.9218ZM16.4814 19.814C16.4299 20.3296 16.4205 20.3437 16.2143 20.3437H16.0314V19.9218V19.5H16.2705H16.5143L16.4814 19.814Z" fill="black"/>
<path d="M9.80137 9.78281C9.63262 9.81562 9.47324 9.93281 9.39355 10.0828C9.2998 10.2703 9.2998 11.5734 9.39355 11.7609C9.53887 12.0375 9.65137 12.0703 10.4529 12.0703C11.5639 12.0703 11.6248 12.0094 11.6248 10.9219C11.6248 9.85781 11.5545 9.78281 10.5467 9.76875C10.1998 9.76406 9.8623 9.76875 9.80137 9.78281ZM10.9217 10.9219V11.3906H10.4764H10.0311V10.9219V10.4531H10.4764H10.9217V10.9219Z" fill="black"/>
<path d="M12.7922 9.79219C12.3844 9.92344 12.3281 10.0594 12.3281 10.9219C12.3281 12.0094 12.3891 12.0703 13.5 12.0703C14.5828 12.0703 14.625 12.0234 14.625 10.9219C14.625 9.83906 14.5734 9.78281 13.5703 9.76406C13.2094 9.75938 12.8578 9.76875 12.7922 9.79219ZM13.9219 10.9219V11.3906H13.4766H13.0313V10.9219V10.4531H13.4766H13.9219V10.9219Z" fill="black"/>
<path d="M9.60469 12.8766C9.36094 13.0266 9.32812 13.1437 9.32812 13.9312C9.32812 15.0234 9.39844 15.0938 10.4859 15.0938C11.5594 15.0938 11.6344 15.0094 11.6156 13.8609L11.6016 13.1156L11.4281 12.9562L11.25 12.7969H10.4906C9.86719 12.7969 9.70312 12.8156 9.60469 12.8766ZM10.9219 13.9453V14.3906H10.4766H10.0312V13.9453V13.5H10.4766H10.9219V13.9453Z" fill="black"/>
<path d="M12.5249 12.9562L12.3514 13.1156L12.3374 13.8844C12.328 14.5875 12.3327 14.6625 12.4218 14.8031C12.5718 15.0469 12.7499 15.0938 13.4764 15.0938C14.5452 15.0938 14.6249 15.0187 14.6249 13.9547C14.6249 12.8391 14.5827 12.7969 13.4577 12.7969H12.703L12.5249 12.9562ZM13.9218 13.9453V14.3906H13.4764H13.0311V13.9453V13.5H13.4764H13.9218V13.9453Z" fill="black"/>
<path d="M9.67958 15.8437C9.62801 15.8625 9.53426 15.9375 9.46864 16.0078C9.35614 16.1297 9.35145 16.1531 9.33739 16.8891C9.32333 17.7328 9.34208 17.8125 9.60458 17.9859C9.75458 18.0844 9.81083 18.0938 10.4718 18.0938C11.0905 18.0938 11.1983 18.0797 11.3296 18C11.5874 17.8453 11.6249 17.7141 11.6249 16.9359C11.6249 16.3312 11.6108 16.2234 11.5311 16.0922C11.3765 15.8344 11.2452 15.7969 10.4671 15.8016C10.0874 15.8016 9.73114 15.8203 9.67958 15.8437ZM10.9218 16.9453V17.3906H10.4765H10.0311V16.9453V16.5H10.4765H10.9218V16.9453Z" fill="black"/>
<path d="M12.6234 15.8851C12.3656 16.0492 12.3281 16.1804 12.3281 16.9539C12.3281 17.5586 12.3422 17.6664 12.4219 17.7976C12.5859 18.0695 12.7125 18.1023 13.5516 18.0836L14.2969 18.0695L14.4469 17.9148L14.6016 17.7648V16.9445V16.1242L14.4469 15.9742L14.2969 15.8195L13.5328 15.8054C12.8438 15.7961 12.7594 15.8007 12.6234 15.8851ZM13.9219 16.9445V17.3898H13.4766H13.0313V16.9445V16.4992H13.4766H13.9219V16.9445Z" fill="black"/>
</g>
<defs>
<clipPath id="clip0_43_1173">
<rect width="24" height="24" fill="white"/>
</clipPath>
</defs>
</svg>
